<?xml version="1.0" encoding="utf-8"?>
<!-- Generator: Adobe Illustrator 22.0.0, SVG Export Plug-In . SVG Version: 6.00 Build 0)  -->
<svg version="1.1" id="Capa_1" xmlns="http://www.w3.org/2000/svg" xmlns:xlink="http://www.w3.org/1999/xlink" x="0px" y="0px"
	 viewBox="0 0 85 85" style="enable-background:new 0 0 85 85;" xml:space="preserve">
<style type="text/css">
	.st0{fill:#C4161C;}
	.st1{fill:#FFFFFF;}
</style>
<g>
	<path class="st0" d="M61.9,35.2L57.8,37l-2.5,0.4c-0.6,0.1-1.4,0-2,0s-1.5-0.3-1.5-0.3l-1.9-0.6l-1.8-1l-0.5-0.3l-0.4-0.4
		c-0.3-0.3-1-0.4-1-0.4l-0.5,0.3L45,34.8l-0.8,0.4v0.6l0.1,0.5c0,0-0.4,1.7-0.3,2c0.1,1.7,0.1,1.7,0.1,1.8c0,0,0.5,1,0.5,1.8
		c0,0.4,0.3,1.1,0.3,1.1s0.9,0.6,1.1,1c0.5,0.6,1.3,1.5,1.3,1.5l4.4,0.9c0,0,3-0.9,4.4-1.4c0.8-0.3,1.4-0.5,2.2-0.9
		c0.4-0.1,1-0.5,1-0.5l1-0.6c0,0,1-1.3,1.3-1.9c0.4-0.8,0.5-1.4,0.8-2.2c0.3-0.8,0.5-2.2,0.5-2.2l-0.3-1.1L61.9,35.2z"/>
	<g>
		<path class="st1" d="M67.7,35.4c-0.5-0.3-0.8-0.6-0.6-1.3c0.1-0.5,0.1-1.1-0.5-1.5c0,0,0-0.1,0-0.3c0.3,0,0.5,0,0.6-0.1
			c0-0.4,0-0.6,0-0.9c-0.3,0-0.4,0-0.6-0.1c-0.3-1-0.3-1,0.4-1c0,0.1-0.1,0.3-0.1,0.5l0.1,0.1c0,0,0.1,0,0.1-0.1
			c0-0.5,0.1-1,0.1-1.5c0-0.3-0.1-0.6-0.1-0.9c0-0.1,0.1-0.4,0-0.5c-0.1-1-0.3-1.9-0.3-2.9c0-0.5,0.1-0.9-0.4-1.1
			c0.1-0.3,0.3-0.4,0.4-0.6c-0.1,0-0.3,0-0.3,0c-0.1-1.7-0.3-3.2-0.5-4.8c-0.1-0.8-0.1-1.5,0.5-2c-0.3-0.4-0.4-0.8-0.6-1
			c-0.5-0.5-1-1.1-1.5-1.4c-1.4-0.6-2.9-1-4.4-1.5c-0.5-0.1-1.1-0.3-1.7-0.4c-1.1-0.3-2.3-0.6-3.4-0.9c-1.7-0.4-3.4-0.3-5.1-0.1
			c-1,0-1.9,0.1-2.8,0.3c-0.9,0.1-1.7,0.5-2.5,0.8c-1.4,0.4-2.5,1-2.7,2.8c-0.3,2.5-1.1,5.1-1.5,7.8c-0.5,2.8-0.8,5.5-1,8.3
			c-0.3,2.7-0.4,5.3-0.4,8.1c0,1.5,0.3,3.2,0.6,4.7c0.3,0.8,0.9,1.5,1.4,2.2c1.1,1.3,2.4,2.4,3.9,3.3c1,0.5,1.9,1.1,2.8,1.7
			c0.8,0.4,1.5,0.6,2.4,0.8c0.4,0.1,0.5,0.3,0.5,0.8c0,0.3,0,0.6,0,1c-1.9-0.3-3.8-0.3-5.7,0c-3.3,0.4-6.5,0.1-9.5-0.8
			c-3-0.9-2.5-1.3-4.3-2.2c-0.8,0-1.5,0.3-1.7,0.8c0,0.3,0.1,0.5,0.4,0.8c0.3,0.4,0.8,0.6,1,0.9l0,0c0.3,0.3,0.5,0.5,0.8,0.8
			c1.1,0.4,2,0.6,3.8,1.1h0.1c2.5,0.8,5.2,0.9,7.6,1c0.5,0,0.9,0,1.4,0.1c1.1,0.1,2.3,0,3.4-0.1c0.4,0,0.6,0,1-0.1
			c0.6,0,1.1,0,1.8,0c0,0.4,0,0.6,0,1c-0.3,0-0.6,0-0.9,0.1c-1.7,0.3-2.9,1.1-3.6,2.5c-0.6,1.4-0.4,2.8,0.9,4.1
			c0.9,0.9,1.9,0.9,2.9,0.9h0.4c2.3,0.1,4.8,0,7.5-1.5c0.5-0.4,1.5-0.5,2.5-0.4c-2.7,2.2-5.1,3-7.8,3c-0.3,0-0.4,0-0.6,0
			c-0.4,0-0.8,0-1.1,0c-1.1,0-1.8,0.6-2,1.8c-0.1,0.5,0,0.9,0.3,1.1c0.4,0.4,0.9,0.5,1.3,0.5h0.1c0.6,0,1.4,0,2.2-0.1
			c0.4,0,0.8-0.1,1.1-0.1c1.1,0,2.4,0.1,3.6,0.5c-0.1,0-0.3,0.1-0.4,0.1s-0.1,0-0.3,0.1c-1,0.4-2.2,0.5-3.2,0.6
			c-1.1,0.1-2.3,0.1-3.3,0c-0.5,0-1-0.1-1.4-0.3c-0.4-0.1-1.4-0.3-1.9,0.9c-0.1,0.5-0.1,0.9,0,1.3c0.1,0.4,0.5,0.6,1,0.8
			c0.3,0.1,0.5,0.1,0.8,0.3c0.9,0.3,1.9,0.5,2.8,0.6c0.4,0.1,0.9,0.1,1.3,0.3c0.4,0.1,0.8,0.1,1.1,0.4c-0.8,0-1.5-0.1-2.3,0
			c-1.3,0-2.5-0.1-3.8-0.5c-0.3-0.1-0.6-0.3-0.9-0.4c-0.3-0.1-0.5-0.3-0.6-0.5c-0.4-0.4-0.8-0.5-1.3-0.5c-0.5,0-1,0.3-1.4,0.6
			c-0.5,0.6-0.5,1.5,0.1,2.3l0.1,0.1c0.1,0.1,0.4,0.3,0.5,0.4c-0.3-0.1-0.6-0.3-0.9-0.4l-0.1-0.1c-0.3-0.3-0.5-0.4-0.6-0.4
			c0-0.4-0.3-0.6-0.5-0.6l0,0c-0.6-0.5-1-1.1-1.5-1.8L40.5,72c-1.3-1.7-2.8-2.8-4.2-3.7c-0.3-0.1-0.5-0.3-0.6-0.4
			c-1.1-0.8-1.4-0.9-3-1.5c-0.3-0.1-0.5-0.3-0.8-0.5c-0.1-0.1-0.4-0.3-0.5-0.4c-0.1,0-0.1-0.1-0.3-0.1c-0.3-0.3-0.6-0.5-1.1-0.5
			c-0.1-0.8-0.8-0.9-1.1-1c-0.3,0-0.5-0.1-0.5-0.3c-0.4-0.6-1.5-1.1-2.3-1.3c-0.4-0.1-0.6-0.1-0.8-0.1c-0.1-0.1-0.3-0.3-0.5-0.4
			c-0.6-0.5-1.3-0.9-1.9-1.1c-0.6-0.4-1.1-0.6-1.7-1c-0.4-0.4-0.9-1-1.5-1.7c-0.1-0.1-0.3-0.1-0.4-0.3c-0.3-0.1-0.5-0.3-0.8-0.3
			c-0.3-0.1-0.5-0.1-0.8-0.1l0,0c-0.6,0.1-0.5,0.3-0.5,0.8c0,0.6,0.1,1.3,0.3,1.9c0.4,0.9,1.1,1.7,2.2,2.2c0.9,0.5,1.8,1,2.3,1.9
			c0.1,0.3,0.5,0.5,0.8,0.6c2.8,2,3.8,1.8,6.6,3.9c2.2,1.7,3,1.7,5.5,3c1.7,1,2.9,2.3,4.3,3.6c1.1,1.1,2,2.4,3.4,3.2
			c0,0.1,0,0.3,0,0.5c0,0.1,0,0.1,0,0.3c-0.3,1.4,0.6,2.7,1.9,3.3c2.4,1.3,5,2.5,7.9,2.3c0.8-0.1,1.5,0.1,2.4,0.1
			c0.3,0,0.6-0.1,0.9-0.1c0.4,0,0.9,0,1.3-0.1c0.8-0.3,1.4-0.3,2-0.8c0.6-0.5,1.3-1,1.5-1.8c-0.1-0.4-0.3-0.6-0.3-1
			c0-0.5,0.1-1.1,0.1-1.7c0-1.7-0.6-3-1.9-3.9c-0.5-0.4-1.1-0.6-1.7-1c0-0.1-0.1-0.3-0.1-0.4c-0.4-0.6-1.1-0.9-1.7-1.5
			c1.7-0.1,3-0.8,4.4-1.3c0.8-0.3,1.3-0.8,1.4-1.5c0.1-0.8-0.4-1.3-1-1.7c-0.5-0.4-1.1-0.6-1.7-0.9c-0.3-0.1-0.5-0.3-0.5-0.5
			s0.4-0.3,0.6-0.4c0.9-0.3,1.7-0.4,2.5-0.6c2.3-0.6,3.7-2.4,2.2-4.8c-1.4-1.1-3.2-1.1-5-1.5c0-0.4,0-0.4,0.8-1.1
			c0.5-1.3-0.1-2.9-1.4-3.6c-1-0.5-2.2-0.9-3.3-1.3c0-0.5,0.1-1,0.1-1.8c0-0.3,1.3-1,1.4-1.1c1.3-0.5,2.5-1,3.8-1.3
			c1.8-0.3,3-1.7,4.4-2.5c1.4-0.9,2.3-2.4,2.9-4.1c0.8-2.3,1.9-4.6,0.8-6.7C67.5,36.1,67.6,35.7,67.7,35.4z M47.9,61
			c0-0.5,0.5-0.8,1-0.9c0.6-0.3,1.1-0.3,1.8-0.3c0,1,0,1.9,0,2.7c-0.8,0-1.4-0.1-2-0.5C48.2,61.9,47.9,61.5,47.9,61z M53.4,60.5
			c0.9,0.1,1.8,0,2.7,0c-0.9,0.6-1.8,1.3-2.8,1.8C53.2,61.7,53.2,61.1,53.4,60.5z M54.6,56.9c-0.4,0-0.8,0-1.1,0c0-0.1,0-0.3,0-0.4
			C53.9,56.7,54.3,56.8,54.6,56.9z M56.4,83c-0.6,0.6-1.1,0.5-1.9,0.5c-0.9,0-1.8-0.1-2.7-0.1c-2,0-5.3-1.4-6.4-3.2
			c-0.1-0.3-0.3-0.4-0.3-0.6c0.6,0.1,1.3,0.1,2.2,0.3c1.1,0.1,1.9-0.5,1.5-1.7c-0.3-0.6,0.3-0.9-0.1-1.7c0.6,0,1.3,0.1,1.9,0.1
			c0.1,0.6,0.1,1.4,0.3,2c0.1,0.8,0.4,1,1.1,0.8c0.4-0.1,0.6-0.3,1-0.5c0.1-0.1,0.3-0.4,0.3-0.5c0-0.4,0-0.9,0-1.3
			c0.9,0.1,1.7,0,2.5,0.1c0.4,0,0.8-0.1,0.9-0.3c0.4,0.4,0.6,0.9,0.9,1.5C58.2,79.9,57.7,81.7,56.4,83z M64.4,33.7
			c-0.4,2.5-0.5,5-1.1,7.4c-0.5,2-1.8,3.7-3.9,4.4c-1.5,0.5-2.9,1.4-4.3,1.9c-1,0.4-2.2,0.8-3.3,0.8s-2.4-0.3-3.4-0.6
			c-1.4-0.6-2.8-1.4-4.1-2.3c-1-0.9-1.3-2.3-1.4-3.7c-0.1-1.3-0.1-2.4-0.3-3.7c0-0.3,0.1-0.4,0.1-0.6c0-0.1-0.1-0.3-0.1-0.5
			c0-0.1-0.1-0.3-0.1-0.4c0.6-0.9,0.4-1.9,0.5-2.9c0.1-1.5,0.1-3.2,0.3-4.7c0-0.3,0.4-0.5,0.4-0.9c0-0.5,0.6-1.3-0.1-1.8
			c-0.1,0,0-0.3,0-0.4c0.5-1.8,0.9-3.7,1.4-5.5c0.3-0.8,0.8-1.4,1-2c0.4-0.9,0.6-1.8,0.9-2.8s0.5-1.5,1.5-1.5c2-0.1,4.2-0.3,6.4-0.4
			c1.3,0.4,2.5,0.8,3.9,1.1c0.8,0.3,1.5,0.4,2.3,0.5c0.8,0.1,1,0.6,1.1,1.3c0.4,1.9,0.9,3.9,1.1,5.8c0.3,1.7,0.3,3.4,0.5,5.1
			c0.3,1.5,0.6,2.9,0.8,4.4C64.6,32.5,64.6,33.2,64.4,33.7z"/>
		<path class="st1" d="M30.5,21.9c0.8,0.3,1.5,0.4,2.2,0.4c0.8,0,1.4-0.1,2-0.5c0.9-0.4,1.7-0.9,2.5-1.4c0.4-0.3,0.9-0.5,1.4-0.8
			v-0.4c-0.4-0.1-0.6-0.3-1-0.4c-0.6-0.3-1.1-0.4-1.7-0.5c-0.3,0-0.5-0.1-0.9-0.1c-1.8-0.3-3.7-0.6-5.5,0c-0.5,0.1-0.8,0.4-0.9,0.6
			C28.5,20.1,29.2,21.5,30.5,21.9z"/>
		<path class="st1" d="M30.8,11.6c1.9,1.1,3.9,1.3,6,1.3c0.4,0,0.8,0,1.1,0l0.3-0.1l0.1-0.4v-0.3c-0.1-0.1-0.1-0.3-0.3-0.4
			c-0.1-0.3-0.4-0.6-0.6-0.8c-1.5-0.9-3.6-2-5.7-3c-0.4-0.1-1.1-0.1-1.5,0C29.9,8,29.7,8,29.7,8.1c-0.3,0.9,0,1.9,0,2.3
			C29.9,10.9,30.5,11.3,30.8,11.6z"/>
		<path class="st1" d="M41.2,6.7c0.5,0.4,1,0.9,1.5,1.3c0.3,0.3,0.5,0.4,0.8,0.6l0.4-0.1C43.8,8.3,44,8.1,44,8
			c0-0.3,0.1-0.4,0.1-0.5c0.1-2.3-1-4.1-2.3-5.7c-0.4-0.5-0.6-0.9-1-1.4C40.7,0.1,40.3,0.1,40,0c-0.1,0-0.6,0-0.9,0.1
			c-0.1,0.1-1,1-0.9,1.7C38.8,3.8,39.7,5.3,41.2,6.7z"/>
		<path class="st1" d="M55,27.6c-0.4,0-0.9-0.1-1.3-0.1c-0.1,0-0.3-0.1-0.4-0.1c-0.3,0-0.5-0.1-0.9-0.3c-0.3-0.1-0.4-0.1-0.6-0.3
			L51.1,28c1.5,2.2,3.3,2.8,5.8,2c0.4-0.1,0.5-0.1,0.5-0.1s0,0.3,0,0.5c-0.1,0.6-0.3,1.1-0.6,1.5c-1,1.1-2.9,1.4-4.3,0.4
			c-0.3-0.1-0.5-0.4-0.8-0.5l-0.4-0.5l-1.1,0.9c0.6,1.4,1.7,2.4,2.8,2.9c0.5,0.1,1,0.3,1.5,0.3c0.8,0,1.7-0.3,2.4-0.6
			c2-0.9,3.3-3.4,2.8-5.3C59.2,27.2,56.9,27.3,55,27.6z"/>
		<path class="st1" d="M60.5,18.6l-0.9-0.4l-0.4,0.3l-0.4,0.5l-0.5,1.7l-1.1-2.2l-1-0.3l-0.5,0.3l-0.4,0.6c-0.1,1.9,0.5,3.3,1.9,4.3
			c0.4,0.4,1.1,0.5,1.7,0.5c0.1,0,0.1,0,0.3,0c0.4,0,0.5-0.3,0.6-0.4c0.6-0.8,1-1.8,1.3-2.8c0.1-0.5-0.1-1-0.4-1.5
			C60.6,18.9,60.6,18.8,60.5,18.6z"/>
		<path class="st1" d="M52.2,24.5c1.5-1.1,1.8-3.4,0.5-5.2l-1.3,0.3l-0.9,3.2l-1.9-3l-1.3,0.4c-0.1,2.4,0.6,4.1,2.3,4.8
			c0.3,0.1,0.8,0.3,1.1,0.3C51.3,24.9,51.9,24.8,52.2,24.5z"/>
	</g>
</g>
</svg>
