<?xml version="1.0" standalone="no"?>
<!DOCTYPE svg PUBLIC "-//W3C//DTD SVG 20010904//EN"
 "http://www.w3.org/TR/2001/REC-SVG-20010904/DTD/svg10.dtd">
<svg version="1.0" xmlns="http://www.w3.org/2000/svg"
 width="430.000000pt" height="430.000000pt" viewBox="0 0 430.000000 430.000000"
 preserveAspectRatio="xMidYMid meet">
<metadata>
Created by potrace 1.14, written by Peter Selinger 2001-2017
</metadata>
<g transform="translate(0.000000,430.000000) scale(0.100000,-0.100000)"
fill="#000000" stroke="none">
<path d="M2598 4195 c-1 -1 -43 -5 -93 -8 -89 -5 -236 -42 -298 -73 -61 -32
-69 -51 -107 -254 -28 -152 -30 -162 -35 -171 -3 -4 -7 -24 -11 -44 -3 -21 -8
-47 -10 -59 -7 -29 -11 -53 -18 -106 -3 -25 -8 -56 -11 -70 -2 -14 -7 -50 -10
-80 -3 -30 -8 -62 -10 -70 -2 -8 -7 -53 -10 -100 -4 -46 -9 -96 -11 -110 -9
-61 -12 -490 -4 -540 5 -30 12 -71 16 -90 17 -99 152 -245 319 -346 128 -78
147 -88 228 -114 l67 -22 0 -41 0 -42 -137 -1 c-76 0 -201 -3 -278 -6 -126 -6
-229 0 -307 16 -16 3 -40 8 -55 12 -101 20 -186 55 -262 108 -38 27 -51 32
-78 26 -79 -18 -78 -50 4 -128 59 -56 87 -69 263 -116 184 -49 317 -62 633
-59 l217 1 0 -28 c0 -25 -4 -28 -42 -34 -93 -15 -167 -67 -203 -143 -35 -73
-18 -158 45 -222 46 -47 93 -58 240 -55 151 3 234 20 334 71 27 14 74 27 105
30 l56 5 -35 -31 c-52 -45 -206 -118 -275 -130 -33 -6 -102 -11 -153 -10 -107
1 -135 -11 -158 -67 -17 -40 -10 -75 17 -100 17 -15 35 -17 112 -15 155 6 240
2 287 -12 l45 -13 -92 -23 c-106 -27 -235 -33 -345 -17 -90 13 -111 8 -132
-33 -39 -74 -7 -111 124 -145 100 -27 132 -34 192 -43 64 -10 33 -19 -54 -17
-164 5 -240 22 -312 72 -55 38 -90 37 -132 -4 -29 -27 -35 -38 -31 -63 3 -17
15 -44 27 -61 12 -16 19 -30 16 -30 -12 0 -145 140 -195 205 -30 39 -77 89
-105 113 -74 62 -234 166 -286 186 -49 19 -200 116 -200 129 0 4 -21 17 -46
27 -25 11 -52 27 -61 35 -21 22 -61 41 -113 55 -25 6 -54 20 -65 29 -25 22
-153 101 -163 101 -4 0 -32 25 -62 56 -61 63 -128 99 -166 90 -27 -7 -30 -30
-17 -122 5 -40 14 -56 52 -94 25 -25 64 -54 86 -64 22 -11 63 -43 92 -72 59
-61 122 -103 243 -164 47 -23 126 -71 175 -105 50 -34 141 -89 204 -121 148
-74 217 -127 394 -300 137 -134 144 -143 141 -175 -6 -44 19 -109 54 -141 35
-34 188 -110 277 -138 60 -19 95 -23 250 -25 191 -2 258 7 316 43 48 29 90 76
89 98 -1 39 0 130 2 149 5 46 -14 122 -40 160 -15 22 -49 54 -76 70 -26 17
-77 58 -112 91 l-65 62 63 15 c90 21 199 64 224 88 27 25 36 65 22 95 -12 25
-63 62 -115 83 -18 7 -37 19 -44 27 -13 16 -2 21 116 53 105 29 160 62 185
111 24 46 25 75 6 121 -27 64 -70 88 -206 113 -46 9 -86 19 -89 21 -2 3 6 19
18 36 28 37 33 83 14 129 -27 67 -73 98 -203 140 l-55 18 3 48 c3 41 8 53 35
76 38 32 133 70 237 96 94 24 123 39 236 124 122 91 148 131 222 338 35 99 43
183 22 246 -9 26 -8 39 4 62 13 26 13 30 -1 44 -9 10 -16 36 -17 67 -1 27 -7
56 -14 63 -18 18 -15 28 8 28 15 0 19 5 16 23 -3 12 -5 26 -5 31 -1 4 -7 6
-15 3 -8 -3 -17 1 -20 9 -10 26 -7 44 9 44 9 0 12 -6 9 -15 -4 -8 -1 -15 5
-15 15 0 17 37 6 175 -3 44 -8 107 -10 140 -3 33 -6 76 -9 95 -2 19 -7 62 -10
95 -4 33 -9 85 -12 115 -12 113 -11 140 2 157 21 28 17 48 -22 95 -50 60 -89
81 -234 127 -228 71 -407 109 -519 109 -55 0 -101 -1 -103 -3z m274 -166 c24
-7 48 -14 53 -15 21 -6 221 -56 240 -59 43 -9 55 -29 79 -140 34 -150 53 -265
61 -360 12 -163 14 -176 41 -320 26 -137 26 -150 9 -292 -44 -369 -97 -484
-255 -556 -36 -16 -94 -42 -130 -59 -246 -115 -354 -123 -537 -38 -230 107
-257 155 -267 471 -2 53 -6 102 -10 108 -4 6 -2 20 5 32 6 12 13 45 14 73 2
28 6 113 10 190 4 81 13 153 21 172 8 19 12 34 9 34 -2 0 0 11 5 24 6 17 4 30
-6 44 -13 19 -11 35 20 154 46 175 48 181 89 268 19 41 42 102 51 135 25 88
36 113 54 120 10 3 62 9 117 12 55 3 101 6 102 7 11 8 193 4 225 -5z m-77
-2369 c18 -8 17 -9 -7 -9 -16 -1 -28 4 -28 9 0 12 8 12 35 0z m-199 -182 c5
-4 9 -28 8 -55 -4 -93 1 -86 -46 -79 -116 19 -139 100 -38 130 47 14 58 15 76
4z m293 -27 c9 -1 -64 -52 -101 -72 l-38 -19 0 44 c0 24 4 46 10 48 8 2 107 1
129 -1z m-292 -903 c4 -7 10 -39 14 -72 8 -70 17 -81 61 -72 56 11 72 30 72
83 l-1 48 101 -1 101 -1 26 -52 c44 -87 26 -190 -47 -268 l-26 -28 -147 2
c-160 2 -217 14 -315 69 -56 31 -121 94 -129 124 -5 18 -2 20 27 15 17 -4 56
-7 85 -8 45 -2 56 2 72 22 16 19 18 34 14 87 l-5 64 44 0 c25 0 48 -6 53 -12z"/>
<path d="M2894 3793 c-37 -27 -33 -121 8 -194 45 -81 140 -130 196 -100 28 15
85 134 85 176 0 50 -31 103 -66 111 -37 8 -61 -14 -78 -73 l-12 -46 -30 59
c-16 33 -30 60 -31 61 -7 8 -63 12 -72 6z"/>
<path d="M2653 3718 c-6 -7 -19 -46 -29 -85 -10 -40 -21 -73 -24 -73 -3 0 -27
36 -54 81 -47 78 -49 80 -79 73 -47 -9 -47 -9 -41 -77 10 -124 87 -210 188
-211 63 0 97 21 126 81 44 87 17 215 -46 221 -17 2 -35 -3 -41 -10z"/>
<path d="M2638 3293 l-21 -35 37 -37 c74 -76 173 -101 276 -71 19 5 36 10 38
10 5 0 -6 -53 -17 -85 -27 -72 -152 -106 -230 -63 -20 11 -45 29 -57 39 -21
19 -21 19 -50 -3 -16 -12 -30 -23 -32 -24 -2 -1 2 -13 9 -26 49 -94 136 -151
231 -151 117 -1 216 62 269 168 28 57 31 72 26 120 -12 113 -66 149 -222 147
-80 -1 -114 4 -168 22 l-67 23 -22 -34z"/>
<path d="M2335 2890 c-11 -5 -35 -14 -53 -20 -29 -11 -33 -17 -32 -49 1 -20
-1 -70 -4 -111 -4 -75 -1 -99 29 -220 14 -58 23 -73 88 -142 42 -45 83 -79 97
-81 14 -3 45 -8 70 -12 25 -4 54 -9 65 -12 67 -14 86 -13 155 8 41 13 77 24
80 24 22 3 158 54 216 80 119 54 175 130 220 299 28 106 27 159 -2 181 -29 22
-43 19 -160 -34 -60 -28 -134 -53 -164 -57 -66 -10 -225 -11 -260 -2 -112 26
-198 66 -250 114 -33 30 -70 43 -95 34z"/>
</g>
</svg>
